<svg height="512" viewBox="0 0 152 152" width="512" xmlns="http://www.w3.org/2000/svg"><g id="Layer_2" data-name="Layer 2"><g id="Color"><g id="_01.Facebook" data-name="01.Facebook"><circle id="Background" cx="76" cy="76" fill="#4a6ea9" r="76"/><path id="Icon" d="m66.44 81.17h-9.94c-1.56 0-2.12-.57-2.12-2.14q0-6.07 0-12.13c0-1.56.59-2.15 2.13-2.15h9.93v-8.75a21.89 21.89 0 0 1 2.73-11.26 16.51 16.51 0 0 1 8.93-7.42 21.91 21.91 0 0 1 7.65-1.32h9.83c1.41 0 2 .62 2 2v11.41c0 1.43-.6 2-2 2-2.69 0-5.38 0-8.06.11s-4.14 1.33-4.14 4.13c-.06 3 0 5.94 0 9h11.55c1.64 0 2.2.56 2.2 2.21q0 6 0 12.06c0 1.63-.52 2.14-2.17 2.15h-11.64v32.54c0 1.74-.54 2.29-2.26 2.29h-12.52c-1.51 0-2.1-.59-2.1-2.1z" fill="#fff"/></g></g></g></svg>