<?xml version="1.0" encoding="utf-8"?><svg version="1.1" id="图层_1" xmlns="http://www.w3.org/2000/svg" xmlns:xlink="http://www.w3.org/1999/xlink" x="0px" y="0px" viewBox="0 0 1024 1024" style="enable-background:new 0 0 1024 1024;" xml:space="preserve"><g><path d="M384,640c-0.9,0-1.8,0-2.7,0.1h5.5C385.8,640,384.9,640,384,640z M384,640c-0.9,0-1.8,0-2.7,0.1h5.5 C385.8,640,384.9,640,384,640z M384,640c-0.9,0-1.8,0-2.7,0.1h5.5C385.8,640,384.9,640,384,640z"/><path d="M682.7,256V85.3H341.3V256h-256v298.7H128v384h768v-384h42.7V256H682.7z M810.7,853.3h-384V640.1h-85.3v213.2h-128V554.7 h597.3V853.3z M853.3,469.3H170.7v-128h256V170.7h170.7v170.7h256V469.3z"/></g></svg>