<?xml version="1.0" encoding="utf-8"?>
<!-- Generator: Adobe Illustrator 23.0.2, SVG Export Plug-In . SVG Version: 6.00 Build 0)  -->
<svg version="1.1" id="图层_1" xmlns="http://www.w3.org/2000/svg" xmlns:xlink="http://www.w3.org/1999/xlink" x="0px" y="0px"
	 viewBox="0 0 512 512" style="enable-background:new 0 0 512 512;" xml:space="preserve">
<path d="M492,427.4H311.2L493.6,245c7.8-7.8,7.8-20.5,0-28.3L326.7,49.9c-7.8-7.8-20.5-7.8-28.3,0l-280,280
	c-7.8,7.8-7.8,20.5,0,28.3l69.3,69.3H20c-11,0-20,9-20,20s9,20,20,20h472c11,0,20-9,20-20S503,427.4,492,427.4z M312.6,92.3
	l138.6,138.6L339.4,342.6L200.8,204L312.6,92.3z M144.3,427.4L60.8,344l111.7-111.7l138.6,138.6l-56.6,56.6H144.3z"/>
</svg>
