<?xml version="1.0" encoding="utf-8"?>
<!-- Generator: Adobe Illustrator 23.0.2, SVG Export Plug-In . SVG Version: 6.00 Build 0)  -->
<svg version="1.1" id="图层_1" xmlns="http://www.w3.org/2000/svg" xmlns:xlink="http://www.w3.org/1999/xlink" x="0px" y="0px"
	 viewBox="0 0 20 20" style="enable-background:new 0 0 20 20;" xml:space="preserve">
<style type="text/css">
	.st0{enable-background:new    ;}
	.st1{fill-rule:evenodd;clip-rule:evenodd;fill:#BBBBBB;}
</style>
<path d="M20,6.8L10,1L0,6.8l10,5.8L20,6.8z M10,3.3l6,3.5l-6,3.5L4,6.8L10,3.3z"/>
<g>
	<g class="st0">
		<path d="M19,20h-1.5c0-1.6,0-3.1,0-4.7c-0.6,0.3-1.1,0.5-1.7,0.8c0-0.5,0-1.1,0-1.6c0.6-0.3,1.3-0.5,1.9-0.8H19V20z"/>
	</g>
</g>
<polygon class="st1" points="0,11.1 2,9.9 10,14.6 18,9.9 20,11.1 10,17.1 "/>
</svg>
